<svg xmlns="http://www.w3.org/2000/svg" xmlns:xlink="http://www.w3.org/1999/xlink" width="512" height="213"><defs><filter id="b" width="103.5%" height="112.1%" x="-1.8%" y="-4.8%" filterUnits="objectBoundingBox"><feOffset dy="2" in="SourceAlpha" result="shadowOffsetOuter1"/><feGaussianBlur in="shadowOffsetOuter1" result="shadowBlurOuter1" stdDeviation="2"/><feColorMatrix in="shadowBlurOuter1" result="shadowMatrixOuter1" values="0 0 0 0 0 0 0 0 0 0 0 0 0 0 0 0 0 0 0.5 0"/><feOffset dx="3" dy="-2" in="SourceAlpha" result="shadowOffsetOuter2"/><feGaussianBlur in="shadowOffsetOuter2" result="shadowBlurOuter2" stdDeviation=".5"/><feColorMatrix in="shadowBlurOuter2" result="shadowMatrixOuter2" values="0 0 0 0 1 0 0 0 0 0.184313725 0 0 0 0 0.662745098 0 0 0 0.5 0"/><feOffset dx="-1" dy="2" in="SourceAlpha" result="shadowOffsetOuter3"/><feGaussianBlur in="shadowOffsetOuter3" result="shadowBlurOuter3" stdDeviation=".5"/><feColorMatrix in="shadowBlurOuter3" result="shadowMatrixOuter3" values="0 0 0 0 0 0 0 0 0 0.956862745 0 0 0 0 1 0 0 0 0.5 0"/><feMerge><feMergeNode in="shadowMatrixOuter1"/><feMergeNode in="shadowMatrixOuter2"/><feMergeNode in="shadowMatrixOuter3"/></feMerge></filter><filter id="d" width="105.7%" height="126.1%" x="-2.9%" y="-10.4%" filterUnits="objectBoundingBox"><feOffset dy="2" in="SourceAlpha" result="shadowOffsetOuter1"/><feGaussianBlur in="shadowOffsetOuter1" result="shadowBlurOuter1" stdDeviation="2"/><feColorMatrix in="shadowBlurOuter1" result="shadowMatrixOuter1" values="0 0 0 0 0 0 0 0 0 0 0 0 0 0 0 0 0 0 0.5 0"/><feOffset dx="3" dy="-2" in="SourceAlpha" result="shadowOffsetOuter2"/><feGaussianBlur in="shadowOffsetOuter2" result="shadowBlurOuter2" stdDeviation=".5"/><feColorMatrix in="shadowBlurOuter2" result="shadowMatrixOuter2" values="0 0 0 0 1 0 0 0 0 0.184313725 0 0 0 0 0.662745098 0 0 0 0.5 0"/><feOffset dx="-1" dy="2" in="SourceAlpha" result="shadowOffsetOuter3"/><feGaussianBlur in="shadowOffsetOuter3" result="shadowBlurOuter3" stdDeviation=".5"/><feColorMatrix in="shadowBlurOuter3" result="shadowMatrixOuter3" values="0 0 0 0 0 0 0 0 0 0.956862745 0 0 0 0 1 0 0 0 0.5 0"/><feMerge><feMergeNode in="shadowMatrixOuter1"/><feMergeNode in="shadowMatrixOuter2"/><feMergeNode in="shadowMatrixOuter3"/></feMerge></filter><path id="a" d="M36 24h32v8h8v60h-8v8H52v24H0V96h8V52H0V24h36Zm320 0v48h4V24h36v84h-8v8h-8v8h-60V96h8v-4h-8V24h36Zm-224 0v8h8v60h-8v8H72v-8h-8V32h8v-8h60Zm-28 44h-4v4h4v-4Zm92-44v8h8v60h-8v8h-60v-8h-8V32h8v-8h60Zm-28 28h-4v20h4V52Zm32 48v-8h-8V24h36v16h4V24h36v68h-8v8h-60ZM316 0v72h8v28h-52V72h8V28h-8V0h44Z"/><path id="c" d="M101.9 57.6a6.5 6.5 0 0 1-4 3 6 6 0 0 1-5-.6h-.2c-1.6.7-3.3 1-5 1h-.3a14 14 0 0 1-6.3-1.4 11.2 11.2 0 0 1-4.9-4.7l.1.2-.1.2-.5 1.2-.3.6a6.8 6.8 0 0 1-4.7 4.1c-1.9.5-4.3.5-6.6-1.9-.5-.4-1-1-1.4-1.6a6.2 6.2 0 0 1-4.4 3H58c-1.3.3-3.1.4-5.5-1.5a8.4 8.4 0 0 1-2.2-2.7l-.3.2a16.5 16.5 0 0 1-5.3 3.3l-.3.1A13.4 13.4 0 0 1 31 57.3h-.2c-3.3 2-7.2 3.4-11 3.6h-.4a16 16 0 0 1-8.5-2.2A14 14 0 0 1 5.3 52a21 21 0 0 1 1.4-17.4 30 30 0 0 1 9.4-11.2c2.2-1.6 4.5-2.5 6.5-3 3-.5 5.6 0 7.6 1.3 2.2 1.2 3.7 2.5 4.8 4.1l.4-.2c3-2.8 6.6-4.7 10-5h.3c4.5-.3 6.8.7 9.8 4.6 1.1 1.1 2.1 2 2.9 3.1v.2l.1-.1L60 26l.3-.5 1.2-2a6.6 6.6 0 0 1 5.9-3.3c1.7 0 3.7.5 5.2 2.4v.1l.4-.2c2.2-1.2 4.3-2 5.8-2h.2a8.2 8.2 0 0 1 5.9 2.6l.1.2h.3c2.5-1.5 4.9-2.4 6.4-2.4h.2c2.3 0 4.2 1 5.6 2.5.6.6 1.1 1.3 1.5 2.2l.1.2.3-.4 1.2-2 .3-.4c1.9-2.8 4-3.2 5.7-3.2 1.6 0 3.6.4 5.2 2.5l.2.2c2.4-1.4 4.6-2.2 6.1-2.3h.2a8.2 8.2 0 0 1 6 2.7v.2l.2-.1c2.6-1.5 5.1-2.4 6.7-2.4h.2c2.3 0 4.2 1 5.6 2.5 1 1.1 2 2.7 2.4 4.6v.2l.3-.3c5.6-5.8 10.8-7.6 14.3-7.7h.2c1.6 0 3 .3 4.1.8l.3.1h.1l1.6-.7h.1l1.7-.2.9.1c3.2.6 3.7 1.7 4.4 2.6l.8 1.2v.1l.3-.3.3-.5c1.9-2.8 4-3.2 5.7-3.2 1.6 0 3.6.5 5.2 2.5 2.7-1.4 5.1-2.2 6.7-2h.2a9 9 0 0 1 5 2.4 11 11 0 0 1 2.8 4.5l.1.2h.1c5.5-5.5 10.6-7.3 14-7.3h.2c1 0 1.9 0 2.7.3h.3l.1-.3a182 182 0 0 1 7.7-12.8l.1-.3c2.1-3 4.3-3.2 5.9-3.2.5 0 1.1 0 1.8.2l1.1.6c2.7 1.5 3 2.6 3.4 3.7 1 2.4 1.5 5.3.2 9.6v.1h.1l.6-.2.2-.1c1.3-.4 2.4-.4 3.4-.3a7 7 0 0 1 4.1 2 6.6 6.6 0 0 1 2 6.4c-.1 1-.6 2.2-1.5 3.9l-.1.1v.1c0 2 0 4 .2 5.8v.3h.2l2.4.7.3.1c4 1.6 8.2 4.5 3.4 13.1a20.7 20.7 0 0 1-26.6 9c-.6-.2-1.1-.6-1.7-1-2.8 2-6 3-8.9 3-2.8-.2-5-1-6.7-2.3l-.2-.1c-2.2 1.3-4.5 2-6.8 2.1h-.3c-2.5 0-4.6-.7-6.3-1.8h-.3c-2.3 1.3-4.7 2-7 2h-.4c-2.5 0-4.5-.4-6.1-1.2a10.4 10.4 0 0 1-5-5.2l-.2.2-.3.6-.5 1.3a6.6 6.6 0 0 1-4.8 4c-1.2.2-2.6.4-4.3-.5h-.3a13 13 0 0 1-4.7.9h-.3c-2.9-.2-5-1-6.8-2.3l-.2-.1h-.2c-2.1 1.3-4.4 2-6.6 2.1h-.4c-2.7 0-5-.8-6.7-2l-.1-.1c-2.5 1.4-5 2.2-7.5 2.2h-.3c-2.5 0-4.7-.5-6.4-1.4a11.3 11.3 0 0 1-5-4.7l.2.2-.2.3-.5 1.2-.3.5c-1.4 3-3.4 3.9-5 4.2a7 7 0 0 1-1.6.2l-.9-.2c-2.3-.5-3-1.2-3.7-1.8l-.1-.2c-.5-.5-1-1-1.3-1.6l-.1-.1h-.1ZM21.5 45v.2l-.3 1.3 1-.5.2-.2-.2-.1-.7-.7Z"/></defs><g fill="none"><g transform="translate(58 22)"><use xlink:href="#a" fill="#000" filter="url(#b)"/><use xlink:href="#a" fill="#FFF"/></g><path fill="#FF2FA9" d="M92 56h24v8h8v40h-8v8H92v16h8v8H68v-8h8V64h-8v-8h16v8h8v40h16V64H92v-8Zm56 16h24v-8h-24v8Zm-8-16h40v8h8v16h-40v24h24v-8h16v8h-8v8h-40v-8h-8V64h8v-8Zm96 8h-24v40h24V64Zm-32 40h-8V64h8v-8h40v8h8v40h-8v8h-40v-8Zm104 8h-16v-8h-8v8h-16v-8h-8V56h16v40h8V72h8v24h8V56h16v48h-8v8Zm32-80h24v72h8v8h-32v-8h8V40h-8v-8Zm48 96h32v-8h8v-8h-32v-8h-8V56h16v48h24V56h16v64h-8v8h-8v8h-40v-8Z"/><g transform="translate(120 113.2)"><use xlink:href="#c" fill="#000" filter="url(#d)"/><use xlink:href="#c" fill="#FFF"/></g><path fill="#00F4FF" d="M346.3 124c1 2.3.8 5.3-2.2 10.5-3.3 6-10 17.6-13.5 25-2 4-2 7 .4 6.8 2.3-.1 5.1-3.1 7.4-6.7-.3-2.5.3-5 2-6.4.8-.7 1.4-.4 1.4.7l.2 1.7c2.8-4 6-8.5 8-12 .4-2.8 1-4.1 2.5-5.4 1.6-1.4 3.2-1.7 3.8-1 .7.6.4 1.4-.5 3l-.8 1.3c-.5 6.5.8 12 .6 16.7-.1 2.8-.6 5.7-3.1 7.4a18 18 0 0 0 9.3-9.7c.4-.8 1.1-.6 1.4 0 .3.6.2 2.4-1 4.6a14.7 14.7 0 0 1-12.4 7.7c-4 .1-8-1-10.4-5.3-2.2 3-5.7 5.5-8.8 5.4-3.8-.3-5.7-2.4-5.7-5.6-2.3 2.8-5.4 5.3-8.7 5.3-2.9 0-4.8-1.7-5.4-4.4-2.2 2.7-5.5 4.7-8.6 4.7-6 0-7.3-4.3-5.3-10.4 2.3-6.9 8.5-14.3 7.2-14.8-.7-.3-4.8 1.6-9.2 6.5a69.7 69.7 0 0 0-10.3 17.8c-.2.6-.7 1-1.3.3a4 4 0 0 1-1.1-1.9 9.3 9.3 0 0 1-6.2 2.5c-3.8-.2-5.7-2.4-5.7-5.7-2.3 2.9-5.4 5.4-8.8 5.4-3 0-5-2-5.5-5-2.3 3-5.8 5.2-9 5.2-6.2 0-8.4-4.8-5.8-10.6 2.6-5.8 8.8-13.6 7.7-14-.5-.2-2.9.6-7.5 5.1a60.9 60.9 0 0 0-12.1 19.1c-.5.9-1 1-1.6.4-1.2-1-2.2-3.8-.2-8.8a48 48 0 0 1 3.6-6.6l.3-.6.4-.6c2.6-4.2 5-7.9 4.2-8.2-.9-.3-4.3 1.5-8.8 6.4-4 4.5-7.5 11-10.3 17.6-.2.6-.7 1-1.3.4a4 4 0 0 1-1.3-2.4c-2 1.8-4.5 3-6.8 3-6-.1-8.1-4.9-5.7-10.6 2.5-5.9 8.8-13.6 7.7-14-.5-.2-3 .7-7.5 5.2a61 61 0 0 0-12 19c-.4.7-1 1-1.7.3-1.1-1-2-3.8 0-8.7a32 32 0 0 1 3.1-6.1l.4-.6c2.7-4.6 5.7-9 4.8-9.3-.7-.3-4.2 1.6-8.6 6.5-4 4.4-7.5 10.9-10.3 17.5-.2.5-.6.7-1.3.2-1.5-1.2-1.8-3.6-.7-7.1.7-2.3 2.5-5.9 4.5-9.8-2 1.3-4 2-6.5 1.7-1.4 6-5.8 13.3-11 15-2.5.9-6 .8-8.9-3-.7-1-1.2-2-1.5-3.2-2.8 3.7-8 6.7-12.8 6.7-9 .2-12-8.5-7.4-17.6 4.5-8.8 11.6-12.6 15-10.5 2 1.2 3 2.3 4 3.9 1.4 3-1.4 6.6-2.8 10.4-.3.9-.6 1-1.5.6-1.7-.9-2.7-3-1.7-6.1.8-2.5 2.9-5.5 2-6.3-1.3-1-6.5 3.5-9.7 9.9-3.8 7.9-2.4 13.7 1.8 13.8 5.3 0 10-4.5 12.9-8.7a21 21 0 0 1 2.9-8.6c2.7-4.7 7-8.9 11.1-9.1 2.2-.2 3.2.5 4.7 2.3 1.7 2.2 3.8 2.6 3.4 7.7 0 .4 0 .8-.2 1.2 4.5-.1 9-5.3 12.6-11 .5-.7 1.2-.7 1.6 0 1.1 1.9.9 4.6-.2 7.3 3.2-3.5 8.3-7.6 10.8-7.5 2.4 0 3.6 3.7 2.7 6.8 3.3-3.1 8-6.4 10.3-6.3 2.5 0 3 4.2 1.6 7.5-1.3 3.2-4.6 7.8-6.3 11.2-2 4-1 7.3 1.5 7.2 2-.1 4.3-2.6 6.4-5.9v.3c1.4-4.5 6.5-14.3 11-20.9.4-.8 1-.7 1.4 0 1.2 2 1 4.7 0 7.5 3-3.6 8.2-7.7 10.8-7.6 2.3 0 3.6 3.7 2.7 6.8 3.3-3.3 8-6.6 10.3-6.5 2.6 0 3.1 4.2 1.7 7.7-1.2 3.2-4.7 7.8-6.4 11.3-2 4-1 7.2 1.5 7.1 2.8 0 5.8-4.3 8.4-9 .6-2 1.6-4.2 3.1-6.3 5.7-8.3 11.2-11.4 14.7-11.4 3 0 4.4 2.3 4.3 5l2.5-4.3c.6-.9 1.2-1 1.7-.4 1 1.3 1.6 4.3 0 7.8-1.6 3.1-5.1 8.4-6.8 12.1-1.8 4-1.8 7 .5 6.8 1.8 0 3.9-1.9 5.8-4.3l.4-1.5a111 111 0 0 1 11.2-20.7c.5-.7 1-.7 1.5 0 1 1.8 1 4.2.2 6.7 3.1-3.4 7.9-7.2 10.2-6.9 2.3.4 4.5 3.8 2.7 7.4-1.4 3.1-4.9 8.3-6.5 12-1.8 4-1.4 7.3 1.1 7.2 2.5-.2 5.3-3.5 7.8-7.5a21 21 0 0 1 3.4-8c5.5-8 11.1-11.2 14.6-11.2 2.9 0 4.3 2.2 4.2 4.7 1-1.8 2-3.9 3.2-5.9l.5-1a174 174 0 0 1 8-13.4c.6-1 1.3-.9 1.6 0Zm-82.1 29.5c-3.7 6-4.6 12.2-1.9 12.2 2.9.1 6.5-4.4 10-10.5 4.5-7.7 5.1-12 3.1-12.3-2.2-.2-7.4 4.4-11.2 10.6Zm65.7-10.4c-2.1-.1-7.3 4.3-11.1 10.5-3.8 6-4.6 12-1.8 12.1 2.8.1 6.6-4 9.8-10.4 4.1-7.8 5.2-12.2 3.1-12.2Zm20 5a123 123 0 0 1-7.3 11.3c1 4 3 6.9 5.4 6.2 3.2-1 2.2-12 1.9-17.6Zm-185.3-3.2c-1.9 1.7-3.9 4-5.4 6.7-3 5.2-4 11.6-2.2 13.2 2 1.7 6.2-.9 9.6-7.2 1.2-2.2 2-4.2 2.5-6a8.5 8.5 0 0 1-4.5-6.7Zm3.4.3c-.2 1.4.3 3.5 1.7 4.6.4-2 .6-3.6.4-4.9-.3-2.2-1.8-1.8-2 .3Z"/></g></svg>