<?xml version="1.0" encoding="UTF-8"?>
<svg width="512px" height="213px" viewBox="0 0 512 213" version="1.1" xmlns="http://www.w3.org/2000/svg" xmlns:xlink="http://www.w3.org/1999/xlink">
    <title>peowly-commands</title>
    <defs>
        <path d="M36,24 L68,24 L68,32 L76,32 L76,92 L68,92 L68,100 L52,100 L52,124 L0,124 L0,96 L8,96 L8,52 L0,52 L0,24 L36,24 Z M356,24 L356,72 L360,72 L360,24 L396,24 L396,108 L388,108 L388,116 L380,116 L380,124 L320,124 L320,96 L328,96 L328,92 L320,92 L320,24 L356,24 Z M132,24 L132,32 L140,32 L140,68 L140,92 L132,92 L132,100 L72,100 L72,92 L64,92 L64,32 L72,32 L72,24 L132,24 Z M104,68 L100,68 L100,72 L104,72 L104,68 Z M196,24 L196,32 L204,32 L204,92 L196,92 L196,100 L136,100 L136,92 L128,92 L128,32 L136,32 L136,24 L196,24 Z M168,52 L164,52 L164,72 L168,72 L168,52 Z M200,100 L200,92 L192,92 L192,24 L228,24 L228,40 L232,40 L232,24 L268,24 L268,92 L260,92 L260,100 L224,100 L200,100 Z M316,0 L316,72 L324,72 L324,100 L272,100 L272,72 L280,72 L280,28 L272,28 L272,0 L316,0 Z" id="path-1"></path>
        <filter x="-1.8%" y="-4.8%" width="103.5%" height="112.1%" filterUnits="objectBoundingBox" id="filter-2">
            <feOffset dx="0" dy="2" in="SourceAlpha" result="shadowOffsetOuter1"></feOffset>
            <feGaussianBlur stdDeviation="2" in="shadowOffsetOuter1" result="shadowBlurOuter1"></feGaussianBlur>
            <feColorMatrix values="0 0 0 0 0   0 0 0 0 0   0 0 0 0 0  0 0 0 0.5 0" type="matrix" in="shadowBlurOuter1" result="shadowMatrixOuter1"></feColorMatrix>
            <feOffset dx="3" dy="-2" in="SourceAlpha" result="shadowOffsetOuter2"></feOffset>
            <feGaussianBlur stdDeviation="0.5" in="shadowOffsetOuter2" result="shadowBlurOuter2"></feGaussianBlur>
            <feColorMatrix values="0 0 0 0 1   0 0 0 0 0.184313725   0 0 0 0 0.662745098  0 0 0 0.5 0" type="matrix" in="shadowBlurOuter2" result="shadowMatrixOuter2"></feColorMatrix>
            <feOffset dx="-1" dy="2" in="SourceAlpha" result="shadowOffsetOuter3"></feOffset>
            <feGaussianBlur stdDeviation="0.5" in="shadowOffsetOuter3" result="shadowBlurOuter3"></feGaussianBlur>
            <feColorMatrix values="0 0 0 0 0   0 0 0 0 0.956862745   0 0 0 0 1  0 0 0 0.5 0" type="matrix" in="shadowBlurOuter3" result="shadowMatrixOuter3"></feColorMatrix>
            <feMerge>
                <feMergeNode in="shadowMatrixOuter1"></feMergeNode>
                <feMergeNode in="shadowMatrixOuter2"></feMergeNode>
                <feMergeNode in="shadowMatrixOuter3"></feMergeNode>
            </feMerge>
        </filter>
        <path d="M101.893632,57.5875999 C100.761031,59.4337963 99.2514328,60.2543785 97.8765564,60.6161881 C96.5730761,60.9592092 94.9268909,61.1762623 92.9937467,60.0354384 L92.9066817,59.9822751 L92.7239255,60.0565954 C91.0672166,60.7033511 89.3799702,61.0628499 87.7591662,61.088391 L87.3863581,61.0883356 C84.8935713,61.0564135 82.8108874,60.4965281 81.1155271,59.6321115 C78.9377202,58.5217089 77.3196793,56.8925499 76.2469192,54.9059571 L76.3316817,55.0562751 L76.1969698,55.3452248 C76.0138681,55.7382984 75.8332535,56.1310689 75.654603,56.5232308 L75.3880349,57.1109791 C74.2427492,59.7460537 72.3565393,60.809478 70.7088173,61.2393185 C68.8003203,61.7371873 66.4199475,61.6974951 64.054086,59.3316336 C63.6061477,58.8836953 63.1440065,58.3368075 62.7223713,57.6681811 L62.7046817,57.6392751 L62.6401979,57.7441295 C61.3341329,59.7679312 59.7899757,60.4790679 58.2931388,60.7486698 L58.1137638,60.7789584 C56.8030222,60.9859176 54.9886288,61.0862637 52.6485564,59.2142057 C51.7381007,58.4772321 50.9541734,57.5875378 50.3511171,56.5185464 L50.3476817,56.5122751 L50.1139374,56.7233555 C48.4443773,58.1998868 46.6622533,59.3393799 44.8483464,59.987207 L44.5279317,60.0963941 C42.0187639,60.9234682 38.9383314,61.1808411 35.8490513,60.1348644 C34.2538981,59.5947732 32.6237751,58.7130405 31.0788347,57.3062797 L31.0116817,57.2432751 L30.9348142,57.2929088 C27.6027085,59.3771579 23.718366,60.7340031 19.9099508,60.8689026 L19.5162734,60.8784785 C16.1247434,60.9293312 13.2987229,60.099959 11.0239593,58.7391989 C8.40102297,57.1701625 6.44718128,54.8668128 5.25792244,52.0239178 C3.3387255,47.4361232 3.44761895,41.1203897 6.72849658,34.6091095 C9.38431187,29.3804039 12.8107808,25.6372035 16.0824958,23.3546117 C18.3382139,21.7808548 20.5814126,20.8558427 22.5875272,20.4698471 C25.5634162,19.8972576 28.1628123,20.427502 30.2238946,21.6640702 C32.3649925,22.9365464 33.8526424,24.2389932 35.0142651,25.8027787 L35.0686817,25.8782751 L35.3511788,25.6181788 C38.4661567,22.7706948 42.0230402,20.88969 45.3923122,20.5678669 L45.7076126,20.5422819 C50.1541139,20.2553971 52.4511313,21.2631523 55.53284,25.2253492 C56.645977,26.3347079 57.6013599,27.2934045 58.3541795,28.3446162 L58.4346817,28.4592751 L58.5013451,28.3704324 C59.0138679,27.6661854 59.5077746,26.9023908 59.9873388,26.1320115 L60.3049702,25.6180311 C60.7257708,24.9329731 61.1359892,24.2520118 61.5386267,23.6123448 C63.1485871,21.0129595 65.4318194,20.2839929 67.3867267,20.2839929 C69.1045706,20.2839929 71.0759386,20.8468819 72.6214073,22.7473355 L72.6606817,22.7972751 L72.9798449,22.6174555 C75.240667,21.3560124 77.3250186,20.5655223 78.7709519,20.5312998 L78.973121,20.5315864 C80.9354619,20.5893023 82.6944033,21.2979125 84.1715492,22.5705644 C84.4094851,22.7755608 84.6407192,22.9975638 84.863583,23.2359164 L85.0476817,23.4402751 L85.2718035,23.3164017 C87.8309163,21.9190339 90.2014244,21.0488675 91.7384392,21.0207715 L91.9341396,21.0219082 C94.1990379,21.0899924 96.0624721,21.9911237 97.5164645,23.5119158 C98.0864429,24.1080803 98.5993303,24.826985 99.0185762,25.6591898 L99.1236817,25.8792751 L99.3892896,25.4550579 C99.7964171,24.8059035 100.201652,24.1752553 100.602327,23.5686108 L100.901937,23.1182139 C102.754406,20.2910086 104.952017,19.9074307 106.629868,19.9074307 C108.233165,19.9074307 110.180401,20.3397946 111.803782,22.3639318 L111.970682,22.5792751 L112.042225,22.5387768 C114.416485,21.1975343 116.620034,20.355614 118.113866,20.3212394 L118.313121,20.3215864 C120.27286,20.3792258 122.043437,21.08859 123.531932,22.3705336 C123.771636,22.5769746 124.004592,22.8005445 124.229094,23.0405267 L124.339682,23.1632751 L124.490562,23.0783591 C127.136387,21.6042028 129.598801,20.6976716 131.211669,20.6705383 L131.408805,20.6717493 C133.68697,20.7388915 135.559935,21.6471781 137.019273,23.187618 C138.080358,24.3076725 138.944582,25.861132 139.36631,27.7940496 L139.405682,27.9922751 L139.658788,27.7302424 C145.300699,21.9199979 150.540989,20.1015688 154.006004,20.0405915 L154.186727,20.0389929 C155.770266,20.0389929 157.151406,20.3291696 158.348852,20.8328542 L158.591682,20.9392751 L158.696314,20.8787669 C159.250829,20.565571 159.780394,20.3713831 160.257105,20.2415916 L160.414013,20.2006379 C160.898221,20.0795859 161.465861,19.9858331 162.117565,19.9882551 C162.382139,20.0218301 162.666247,20.0665326 162.972063,20.1237177 C166.238352,20.7344872 166.681035,21.7781504 167.368121,22.6729265 C167.643217,23.0169294 167.914598,23.4135453 168.168966,23.8604609 L168.271682,24.0482751 L168.534982,23.6544517 L168.808817,23.2477275 C170.659845,20.4300597 172.854094,20.0474307 174.529868,20.0474307 C176.133165,20.0474307 178.080401,20.4797946 179.703712,22.5038605 L179.714682,22.5182751 L179.755488,22.4964051 C182.387105,21.0778395 184.820656,20.2814552 186.40016,20.4338388 L186.585559,20.4566999 C188.324632,20.7201958 190.082748,21.5374511 191.565853,22.9209983 C192.728288,24.0054004 193.723671,25.4454346 194.348999,27.1450439 C194.382209,27.2353086 194.414434,27.3263522 194.445635,27.418152 L194.511682,27.6222751 L194.602189,27.5319199 C200.056997,22.0777548 205.202633,20.3119835 208.602992,20.2506594 L208.786727,20.2489929 C209.759156,20.2489929 210.655869,20.3607215 211.48079,20.5657127 L211.753682,20.6372751 L211.940277,20.301936 C214.844327,15.0492502 217.790798,10.0111482 219.552574,7.46685991 L219.704919,7.2488937 C221.823779,4.282329 224.047872,4 225.561907,4 C226.103795,4 226.736642,4.03616626 227.421842,4.21751392 C227.756843,4.36814727 228.122323,4.55410904 228.524109,4.78220763 C231.179634,6.28978064 231.441799,7.37891035 231.860998,8.48666769 C232.847335,10.8620153 233.41213,13.7599708 232.085826,18.063017 L232.035682,18.2192751 L232.249786,18.1365249 C232.431848,18.068426 232.610935,18.0074152 232.786434,17.9531034 L233.046913,17.8766114 C234.284181,17.5329258 235.419085,17.4899977 236.381829,17.6137258 C238.146706,17.8405408 239.523345,18.6103301 240.539367,19.6263522 C242.439452,21.5264365 243.003666,23.5167975 242.545004,26.0394387 C242.372035,26.9907704 241.90236,28.2342678 240.960104,29.9013364 L240.877682,30.0322751 L240.874488,30.1160173 C240.806737,32.1634868 240.928471,34.0984131 241.08413,35.9358928 L241.107682,36.2072751 L241.271267,36.2338043 C242.109698,36.3788091 242.943354,36.6366978 243.746553,36.9391588 L244.013123,37.0415362 C248.090607,38.6370737 252.151446,41.5381532 247.432413,50.1434289 C243.69853,56.9233754 237.013682,60.6489823 230.040022,60.943644 C226.745234,61.0574381 223.590199,60.549741 220.809399,59.1405522 C220.237644,58.8508111 219.678663,58.5242975 219.135481,58.1564873 C216.28535,60.0730155 213.091926,61.1672851 210.203907,61.009755 C207.36316,60.8519358 205.150532,60.0202555 203.450861,58.8124239 L203.274682,58.6842751 L203.24917,58.6996482 C201.103008,59.9520321 198.805243,60.7321607 196.528119,60.8036188 L196.186727,60.8089929 C193.718529,60.8089929 191.638751,60.1439577 189.925771,59.0359241 L189.737682,58.9102751 L189.58363,58.9983097 C187.306151,60.261731 184.864294,61.0149468 182.535209,61.0838168 L182.186727,61.0889929 C179.696639,61.0889929 177.684577,60.5749502 176.076378,59.7842579 C173.890276,58.7094322 172.31578,57.1033089 171.285472,55.0833638 C171.200038,54.915867 171.118393,54.7441143 171.040705,54.5681769 L171.037682,54.5602751 L170.920132,54.8192401 C170.825862,55.0256168 170.731686,55.2320325 170.637557,55.4383935 L170.072984,56.6751536 C168.875308,59.3209742 166.952095,60.3215444 165.271953,60.6752584 C164.132209,60.9152047 162.686345,61.0923864 161.015085,60.2038027 L160.966682,60.1762751 L160.746448,60.2603641 C159.160749,60.8372868 157.557744,61.1262948 156.026065,61.0931404 L155.673907,61.079755 C152.848813,60.9228054 150.61683,60.0730654 148.892122,58.8309281 L148.680682,58.6742751 L148.521108,58.7688462 C146.40224,59.9857443 144.13083,60.7352144 141.857692,60.8038331 L141.516727,60.8089929 C138.824142,60.8089929 136.588164,60.0229511 134.786561,58.7214896 L134.692682,58.6522751 L134.638521,58.684605 C132.243772,60.0565949 129.661053,60.8756736 127.218852,60.9443042 L126.886727,60.9489929 C124.353461,60.9489929 122.227296,60.4004926 120.494984,59.5338773 C118.279561,58.4255788 116.629311,56.7817547 115.538407,54.772896 L115.659682,54.9892751 L115.507991,55.31735 C115.330833,55.7023092 115.155997,56.0869584 114.982986,56.4710189 L114.724779,57.0466333 C113.267533,59.9737881 111.346139,60.8778186 109.772399,61.2199361 C109.268214,61.3295415 108.707623,61.401492 108.101457,61.3864961 C107.825208,61.343668 107.525288,61.287004 107.198252,61.2144475 C104.889576,60.7022413 104.140365,60.043814 103.54648,59.382329 L103.400432,59.2169769 L103.328311,59.1344084 C102.899196,58.7173746 102.462902,58.2145909 102.060694,57.6102144 L101.965682,57.4632751 L101.893632,57.5875999 Z M21.4896817,45.1112751 L21.4329105,45.3256047 C21.324828,45.7540988 21.2475903,46.163651 21.2035483,46.552212 C21.5294778,46.426384 21.8460727,46.2715465 22.153452,46.092901 L22.4056817,45.9382751 L22.2053408,45.7759969 C21.968988,45.5784055 21.7413635,45.3684613 21.5234641,45.146131 L21.4896817,45.1112751 Z" id="path-3"></path>
        <filter x="-2.9%" y="-10.4%" width="105.7%" height="126.1%" filterUnits="objectBoundingBox" id="filter-4">
            <feOffset dx="0" dy="2" in="SourceAlpha" result="shadowOffsetOuter1"></feOffset>
            <feGaussianBlur stdDeviation="2" in="shadowOffsetOuter1" result="shadowBlurOuter1"></feGaussianBlur>
            <feColorMatrix values="0 0 0 0 0   0 0 0 0 0   0 0 0 0 0  0 0 0 0.5 0" type="matrix" in="shadowBlurOuter1" result="shadowMatrixOuter1"></feColorMatrix>
            <feOffset dx="3" dy="-2" in="SourceAlpha" result="shadowOffsetOuter2"></feOffset>
            <feGaussianBlur stdDeviation="0.5" in="shadowOffsetOuter2" result="shadowBlurOuter2"></feGaussianBlur>
            <feColorMatrix values="0 0 0 0 1   0 0 0 0 0.184313725   0 0 0 0 0.662745098  0 0 0 0.5 0" type="matrix" in="shadowBlurOuter2" result="shadowMatrixOuter2"></feColorMatrix>
            <feOffset dx="-1" dy="2" in="SourceAlpha" result="shadowOffsetOuter3"></feOffset>
            <feGaussianBlur stdDeviation="0.5" in="shadowOffsetOuter3" result="shadowBlurOuter3"></feGaussianBlur>
            <feColorMatrix values="0 0 0 0 0   0 0 0 0 0.956862745   0 0 0 0 1  0 0 0 0.5 0" type="matrix" in="shadowBlurOuter3" result="shadowMatrixOuter3"></feColorMatrix>
            <feMerge>
                <feMergeNode in="shadowMatrixOuter1"></feMergeNode>
                <feMergeNode in="shadowMatrixOuter2"></feMergeNode>
                <feMergeNode in="shadowMatrixOuter3"></feMergeNode>
            </feMerge>
        </filter>
    </defs>
    <g id="peowly-commands" stroke="none" stroke-width="1" fill="none" fill-rule="evenodd">
        <g id="peowly" transform="translate(58, 22)" fill-rule="nonzero">
            <g id="Combined-Shape-Copy">
                <use fill="black" fill-opacity="1" filter="url(#filter-2)" xlink:href="#path-1"></use>
                <use fill="#FFFFFF" xlink:href="#path-1"></use>
            </g>
            <path d="M34,34 L58,34 L58,42 L66,42 L66,82 L58,82 L58,90 L34,90 L34,106 L42,106 L42,114 L10,114 L10,106 L18,106 L18,42 L10,42 L10,34 L26,34 L26,42 L33.9375,42 L34,42.0625 L34,82 L50,82 L50,42 L34,42 L34,34 Z M90,50 L114,50 L114,42 L90,42 L90,50 Z M82,34 L122,34 L122,42 L130,42 L130,58 L90,58 L90,82 L114,82 L114,74 L130,74 L130,82 L122,82 L122,90 L82,90 L82,82 L74,82 L74,42 L82,42 L82,34 Z M178,42 L154,42 L154,82 L178,82 L178,42 Z M146,82 L138,82 L138,42 L146,42 L146,34 L186,34 L186,42 L194,42 L194,82 L186,82 L186,90 L146,90 L146,82 Z M250,90 L234,90 L234,82 L226,82 L226,90 L210,90 L210,82 L202,82 L202,34 L218,34 L218,74 L226,74 L226,50 L234,50 L234,74 L242,74 L242,34 L258,34 L258,82 L250,82 L250,90 Z M282,10 L306,10 L306,82 L314,82 L314,90 L282,90 L282,82 L290,82 L290,18 L282,18 L282,10 Z M330,106 L362,106 L362,98 L370,98 L370,90 L338,90 L338,82 L330,82 L330,34 L346,34 L346,82 L370,82 L370,34 L386,34 L386,98 L378,98 L378,106 L370,106 L370,114 L330,114 L330,106 Z" id="Combined-Shape" fill="#FF2FA9"></path>
        </g>
        <g id="commands" transform="translate(120.0203, 113.2377)" fill-rule="nonzero">
            <g id="Combined-Shape-Copy-3">
                <use fill="black" fill-opacity="1" filter="url(#filter-4)" xlink:href="#path-3"></use>
                <use fill="#FFFFFF" xlink:href="#path-3"></use>
            </g>
            <path d="M226.286727,10.7089929 C227.266727,13.0189929 227.056727,16.0289929 224.116727,21.2789929 C220.756727,27.2989929 214.036727,38.8489929 210.536727,46.2689929 C208.646727,50.3289929 208.576727,53.1989929 210.956727,53.0589929 C213.237763,52.9477228 216.093633,49.9622859 218.399733,46.3167426 C218.110276,43.835823 218.727418,41.2943059 220.336727,39.9689929 C221.176727,39.2689929 221.736727,39.5489929 221.806727,40.6689929 C221.876727,41.2289929 221.876727,41.7889929 221.946727,42.3489929 C224.816727,38.4289929 227.966727,33.8789929 229.996727,30.3089929 C230.346727,27.5789929 231.046727,26.2489929 232.516727,24.9189929 C234.056727,23.5189929 235.666727,23.2389929 236.296727,23.8689929 C236.996727,24.5689929 236.646727,25.3389929 235.736727,26.9489929 C235.456727,27.3689929 235.246727,27.7889929 234.966727,28.2789929 C234.476727,34.7189929 235.806727,40.1789929 235.596727,45.0089929 C235.456727,47.7389929 234.966727,50.6789929 232.446727,52.3589929 C237.136727,50.6089929 240.076727,46.4089929 241.826727,42.6289929 C242.176727,41.8589929 242.876727,42.0689929 243.156727,42.6289929 C243.436727,43.2589929 243.366727,45.0789929 242.176727,47.2489929 C239.516727,52.0789929 234.756727,54.7389929 229.786727,54.9489929 C225.726727,55.0889929 221.806727,54.0389929 219.426727,49.6989929 C219.420749,49.6877841 219.414795,49.6765567 219.408864,49.6653109 C217.217277,52.7013196 213.710508,55.1921082 210.536727,55.0189929 C206.756727,54.8089929 204.866727,52.7089929 204.866727,49.4189929 C202.626727,52.2189929 199.476727,54.8089929 196.186727,54.8089929 C193.286004,54.8089929 191.427622,53.0439622 190.766396,50.3437107 C188.537793,53.0409212 185.261864,55.0889929 182.186727,55.0889929 C176.236727,55.0889929 174.836727,50.7489929 176.866727,44.6589929 C179.176727,37.7989929 185.336727,30.3789929 184.076727,29.8189929 C183.376727,29.5389929 179.316727,31.4989929 174.836727,36.3989929 C170.706727,40.8789929 167.626727,47.5989929 164.616727,54.1789929 C164.336727,54.8089929 163.916727,55.0889929 163.286727,54.4589929 C162.779598,53.9518646 162.40106,53.3253318 162.177727,52.566086 C160.282005,54.1537499 158.064385,55.2012288 156.006727,55.0889929 C152.226727,54.8789929 150.266727,52.6389929 150.266727,49.3489929 C148.026727,52.2189929 144.876727,54.8089929 141.516727,54.8089929 C138.410254,54.8089929 136.483295,52.7846932 135.948817,49.7476947 C133.669722,52.69739 130.143128,54.9489929 126.886727,54.9489929 C120.796727,54.9489929 118.556727,50.1189929 121.146727,44.3789929 C123.736727,38.5689929 129.966727,30.7289929 128.916727,30.3789929 C128.356727,30.1689929 125.976727,30.9389929 121.426727,35.4889929 C115.616727,41.2989929 112.186727,48.0189929 109.246727,54.5989929 C108.826727,55.4389929 108.266727,55.6489929 107.636727,54.9489929 C106.446727,53.8989929 105.466727,51.1689929 107.496727,46.1289929 C108.266727,44.1923262 109.62006,41.8278818 111.03043,39.5178818 L111.383907,38.9417951 L111.737932,38.3696513 C114.331665,34.1924805 116.822282,30.4684373 115.966727,30.1689929 C115.126727,29.8189929 111.696727,31.7089929 107.216727,36.6089929 C103.086727,41.0889929 99.7267267,47.5989929 96.9267267,54.1789929 C96.6467267,54.8089929 96.2267267,55.0889929 95.5967267,54.5289929 C94.9200532,53.9445931 94.4731341,53.1709837 94.2856617,52.1844111 C92.2374612,53.9379289 89.7757532,55.1293267 87.4767267,55.0889929 C81.4567267,55.0189929 79.3567267,50.2589929 81.8067267,44.5889929 C84.3267267,38.7089929 90.5567267,31.0089929 89.5067267,30.5889929 C88.9467267,30.3789929 86.4967267,31.2889929 82.0167267,35.7689929 C76.2767267,41.5089929 72.8467267,48.1589929 69.9067267,54.6689929 C69.5567267,55.5089929 68.9267267,55.7189929 68.2967267,55.0889929 C67.1767267,53.9689929 66.3367267,51.3089929 68.2267267,46.3389929 C68.9208112,44.5387112 70.1189623,42.3755015 71.4025918,40.2304666 L71.7544774,39.6461941 C74.5225886,35.0774079 77.5071492,30.7496971 76.6267267,30.3789929 C75.9267267,30.0989929 72.4267267,31.9889929 67.9467267,36.8889929 C63.8867267,41.2989929 60.5267267,47.7389929 57.7267267,54.3189929 C57.4467267,54.8789929 57.0967267,55.0889929 56.3967267,54.5289929 C54.9267267,53.3389929 54.5767267,50.9589929 55.6967267,47.4589929 C56.3967267,45.1489929 58.1467267,41.5789929 60.1767267,37.6589929 C58.2167267,38.9889929 56.1167267,39.6189929 53.6667267,39.4089929 C52.2667267,45.4289929 47.8567267,52.7089929 42.6767267,54.3889929 C40.1567267,55.2289929 36.5867267,55.1589929 33.7867267,51.3789929 C33.070731,50.4132313 32.5844633,49.3286449 32.3015427,48.1619784 C29.4615771,51.8727662 24.3592554,54.8142228 19.4367267,54.8789929 C10.5467267,55.0189929 7.53672667,46.3389929 12.0867267,37.3089929 C16.5667267,28.4889929 23.6367267,24.7089929 27.1367267,26.8089929 C29.0267267,27.9289929 30.1467267,29.0489929 30.9867267,30.6589929 C32.4567267,33.5989929 29.6567267,37.3089929 28.2567267,41.0889929 C27.9767267,41.9289929 27.6967267,42.1389929 26.7867267,41.6489929 C25.1067267,40.8089929 24.1267267,38.7089929 25.1067267,35.5589929 C25.8767267,33.0389929 27.9767267,30.0289929 26.9967267,29.2589929 C25.8067267,28.2789929 20.5567267,32.7589929 17.4067267,39.1289929 C13.5567267,47.0389929 15.0267267,52.8489929 19.1567267,52.9189929 C24.4657031,52.982195 29.0899071,48.4231837 32.0504078,44.2911816 C32.2916842,41.4849538 33.3563682,38.4736222 34.9767267,35.6289929 C37.6367267,30.9389929 41.9067267,26.8089929 46.1067267,26.5289929 C48.2767267,26.3889929 49.3267267,27.0189929 50.7967267,28.9089929 C52.4767267,31.0789929 54.5767267,31.4289929 54.1567267,36.6089929 C54.1567267,36.9589929 54.1567267,37.3789929 54.0167267,37.7289929 C58.4967267,37.6589929 63.0467267,32.4789929 66.6167267,26.8089929 C67.0367267,26.1089929 67.7367267,26.1089929 68.1567267,26.8089929 C69.2767267,28.6289929 69.0667267,31.3589929 68.0167267,34.0889929 C71.1667267,30.5889929 76.2767267,26.4589929 78.7967267,26.5289929 C81.1767267,26.5989929 82.3667267,30.3089929 81.5267267,33.3889929 C84.8167267,30.2389929 89.5067267,26.9489929 91.7467267,27.0189929 C94.2667267,27.0889929 94.8267267,31.2189929 93.4267267,34.5789929 C92.0967267,37.7289929 88.7367267,42.3489929 87.0567267,45.7789929 C85.0967267,49.7689929 86.0067267,53.0589929 88.5967267,52.9189929 C90.6444628,52.8166061 92.8793964,50.3555312 94.972958,47.0964731 L94.8967267,47.3189929 C96.3667267,42.9089929 101.476727,33.0389929 105.886727,26.4589929 C106.376727,25.6889929 106.936727,25.7589929 107.356727,26.4589929 C108.546727,28.4189929 108.336727,31.1489929 107.286727,33.9489929 C110.366727,30.3789929 115.616727,26.2489929 118.136727,26.3189929 C120.516727,26.3889929 121.776727,30.0989929 120.866727,33.1789929 C124.226727,29.8889929 128.916727,26.5989929 131.226727,26.6689929 C133.746727,26.7389929 134.306727,30.8689929 132.906727,34.3689929 C131.646727,37.5189929 128.216727,42.1389929 126.466727,45.6389929 C124.506727,49.6289929 125.486727,52.8489929 128.006727,52.7789929 C130.760882,52.7118184 133.77289,48.4545428 136.424139,43.7806937 C137.012844,41.7425369 138.023287,39.5824415 139.486727,37.4489929 C145.156727,29.1889929 150.686727,26.0389929 154.186727,26.0389929 C157.196727,26.0389929 158.596727,28.3489929 158.456727,31.0789929 C159.366727,29.3989929 160.206727,27.9289929 160.976727,26.8089929 C161.606727,25.8989929 162.166727,25.7589929 162.656727,26.3889929 C163.706727,27.6489929 164.266727,30.6589929 162.586727,34.1589929 C161.046727,37.3089929 157.546727,42.5589929 155.866727,46.2689929 C154.116727,50.1889929 154.046727,53.1989929 156.426727,53.0589929 C158.163993,52.9742482 160.260342,51.1966835 162.1879,48.7354693 C162.287046,48.2659842 162.419777,47.7707091 162.586727,47.2489929 C163.986727,42.8389929 169.376727,33.1089929 173.786727,26.5989929 C174.276727,25.8289929 174.836727,25.8989929 175.256727,26.5989929 C176.306727,28.3489929 176.236727,30.7289929 175.466727,33.2489929 C178.616727,29.8889929 183.376727,26.0389929 185.686727,26.3889929 C187.996727,26.7389929 190.166727,30.1689929 188.416727,33.8089929 C186.946727,36.8889929 183.516727,42.0689929 181.906727,45.7089929 C180.086727,49.7689929 180.506727,53.0589929 183.026727,52.9189929 C185.464833,52.8000609 188.307078,49.4480248 190.738073,45.4377932 C191.196489,42.9535765 192.317107,40.2111196 194.156727,37.5189929 C199.686727,29.3989929 205.286727,26.2489929 208.786727,26.2489929 C211.656727,26.2489929 213.056727,28.4189929 212.986727,31.0089929 C213.969527,29.1343929 215.056431,27.1036369 216.171159,25.0619026 L216.687347,24.1193129 C219.706727,18.6224929 222.842727,13.2079929 224.606727,10.7089929 C225.306727,9.72899289 225.936727,9.79899289 226.286727,10.7089929 Z M144.176727,40.2489929 C140.466727,46.2689929 139.556727,52.4289929 142.286727,52.4989929 C145.156727,52.5689929 148.796727,48.0889929 152.366727,41.9289929 C156.776727,34.2289929 157.406727,29.8889929 155.376727,29.6789929 C153.136727,29.4689929 148.026727,34.0189929 144.176727,40.2489929 Z M209.906727,29.8189929 C207.736727,29.7489929 202.626727,34.1589929 198.776727,40.3189929 C194.996727,46.3389929 194.226727,52.4289929 196.956727,52.4989929 C199.756727,52.5689929 203.536727,48.4389929 206.826727,42.0689929 C210.886727,34.2989929 211.936727,29.8889929 209.906727,29.8189929 Z M229.856727,34.7889929 C227.826727,38.4989929 225.236727,42.3489929 222.576727,46.1289929 C223.626727,50.1889929 225.656727,53.0589929 227.966727,52.3589929 C231.186727,51.3789929 230.136727,40.3889929 229.856727,34.7889929 Z M44.5667267,31.7089929 C42.6767267,33.3189929 40.7167267,35.6989929 39.1767267,38.3589929 C36.0967267,43.6089929 35.1867267,49.9789929 37.0067267,51.5889929 C38.8967267,53.2689929 43.1667267,50.6789929 46.5967267,44.3789929 C47.7867267,42.2089929 48.6267267,40.1789929 49.1167267,38.3589929 C46.6667267,37.0289929 44.7067267,34.4389929 44.5667267,31.7089929 Z M47.9967267,31.9189929 C47.7867267,33.3889929 48.2767267,35.4189929 49.6767267,36.6089929 C50.0967267,34.5789929 50.3067267,32.9689929 50.0967267,31.7089929 C49.7467267,29.4689929 48.2767267,29.8189929 47.9967267,31.9189929 Z" id="Combined-Shape" fill="#00F4FF"></path>
        </g>
    </g>
</svg>